<?xml version="1.0" encoding="UTF-8"?>
<svg id="Layer_1" data-name="Layer 1" xmlns="http://www.w3.org/2000/svg" viewBox="0 0 821.67 311.88">
  <defs>
    <style>
      .cls-1 {
        fill: #232323;
      }
    </style>
  </defs>
  <g>
    <path class="cls-1" d="M367.84,274.83c-17.25,0-33.54-6.78-45.9-19.11-12.47-12.44-19.3-28.9-19.26-46.35l25,.07c-.03,10.74,4.2,20.89,11.92,28.58,7.64,7.62,17.66,11.81,28.25,11.81.07,0,.13,0,.2,0,22.1-.11,40.02-18.23,39.96-40.39l25-.07c.1,35.92-28.99,65.28-64.84,65.46-.11,0-.22,0-.33,0Z"/>
    <g>
      <path class="cls-1" d="M302.68,148.04c-.1-35.92,28.99-65.28,64.84-65.46.11,0,.22,0,.33,0,17.25,0,33.54,6.78,45.9,19.11,12.47,12.44,19.3,28.9,19.26,46.35l-25-.07c.03-10.74-4.2-20.89-11.92-28.58-7.64-7.62-17.66-11.81-28.25-11.81-.07,0-.13,0-.2,0-22.1.11-40.02,18.23-39.96,40.39l-25,.07Z"/>
      <path class="cls-1" d="M367.84,213.44c-17.25,0-33.54-6.78-45.9-19.11-12.47-12.44-19.3-28.9-19.26-46.35l25,.07c-.03,10.74,4.2,20.89,11.92,28.58,7.64,7.62,17.66,11.81,28.25,11.81.07,0,.13,0,.2,0,22.1-.11,40.02-18.23,39.96-40.39l25-.07c.1,35.92-28.99,65.28-64.84,65.46-.11,0-.22,0-.33,0Z"/>
    </g>
    <path class="cls-1" d="M412.62,105.44l-24.99-.76c.19-6.23,1.91-18.32,11.36-29.28,8.9-10.33,19.87-13.97,25.61-15.22l5.31,24.43c-2.69.59-7.83,2.29-11.98,7.11-4.57,5.31-5.23,11.36-5.3,13.71Z"/>
  </g>
  <path class="cls-1" d="M123.44,205.62c-9.17,0-17.78-1.58-25.82-4.75-8.04-3.16-14.98-7.53-20.81-13.11-5.83-5.57-10.45-12.34-13.85-20.29-3.4-7.95-5.09-16.5-5.09-25.65s1.7-17.71,5.09-25.69c3.4-7.98,8.01-14.75,13.85-20.29,5.83-5.54,12.77-9.91,20.81-13.11,8.04-3.19,16.65-4.79,25.82-4.79s17.69,1.6,25.74,4.79c8.04,3.19,14.98,7.56,20.81,13.11,5.84,5.54,10.45,12.31,13.85,20.29,3.4,7.98,5.09,16.55,5.09,25.69s-1.7,17.69-5.09,25.65c-3.4,7.96-8.01,14.72-13.85,20.29-5.83,5.57-12.77,9.94-20.81,13.11-8.04,3.17-16.62,4.75-25.74,4.75ZM123.44,181.14c7.14,0,13.7-1.68,19.68-5.05,5.98-3.37,10.73-8.08,14.24-14.15,3.51-6.07,5.27-12.79,5.27-20.16,0-11.26-3.8-20.62-11.41-28.09-7.61-7.46-16.87-11.19-27.78-11.19s-20.28,3.75-27.91,11.23c-7.64,7.49-11.45,16.85-11.45,28.09s3.82,20.6,11.45,28.09c7.63,7.49,16.94,11.23,27.91,11.23Z"/>
  <path class="cls-1" d="M197.61,106.16h24.04l1.04,12.28c3.95-5.17,8.55-8.75,13.8-10.76,5.25-2,12.21-3,20.86-3v21.34c-11.03,0-19.57,2.63-25.6,7.88-6.04,5.25-9.06,12.35-9.06,21.29v49.03h-25.08v-98.06Z"/>
  <path class="cls-1" d="M281.01,93.27c-4.18,0-7.72-1.45-10.62-4.35-2.9-2.9-4.35-6.45-4.35-10.62s1.45-7.55,4.35-10.45,6.44-4.35,10.62-4.35,7.55,1.45,10.45,4.35c2.9,2.9,4.35,6.39,4.35,10.45s-1.45,7.72-4.35,10.62c-2.9,2.9-6.39,4.35-10.45,4.35ZM268.38,106.16h25.08v98.06h-25.08v-98.06Z"/>
  <path class="cls-1" d="M457.47,93.27c-4.18,0-7.72-1.45-10.62-4.35-2.9-2.9-4.35-6.45-4.35-10.62s1.45-7.55,4.35-10.45,6.44-4.35,10.62-4.35,7.55,1.45,10.45,4.35c2.9,2.9,4.35,6.39,4.35,10.45s-1.45,7.72-4.35,10.62c-2.9,2.9-6.39,4.35-10.45,4.35ZM444.85,106.16h25.08v98.06h-25.08v-98.06Z"/>
  <path class="cls-1" d="M551.85,204.22v-49.03c0-9.58-1.66-16.84-4.96-21.77-3.31-4.93-8.68-7.4-16.11-7.4-7.9,0-13.99,2.63-18.29,7.88-4.3,5.25-6.44,12.35-6.44,21.29v49.03h-25.08v-98.06h24.04l1.04,14.37c5.92-10.57,16.98-15.85,33.18-15.85,13.35,0,22.96,4.3,28.83,12.89,5.86,8.59,8.8,21.13,8.8,37.62v49.03h-25Z"/>
  <path class="cls-1" d="M629.8,104.68c8.19,0,15.34,1.39,21.47,4.18,6.12,2.79,10.61,6.68,13.46,11.67l1.13-14.37h23.95v98.06h-23.95l-1.13-14.46c-5.34,10.57-16.98,15.85-34.92,15.85-6.44,0-12.5-1.26-18.16-3.79-5.66-2.53-10.55-5.97-14.67-10.32-4.12-4.35-7.39-9.68-9.8-15.98-2.41-6.3-3.61-13.08-3.61-20.34s1.2-14.04,3.61-20.33c2.41-6.3,5.67-11.64,9.8-16.03,4.12-4.38,9.01-7.84,14.67-10.36,5.66-2.53,11.71-3.79,18.16-3.79ZM636.6,184.37c7.89,0,14.56-2.74,19.99-8.23,5.43-5.49,8.14-12.48,8.14-20.99s-2.71-15.49-8.14-20.95c-5.43-5.46-12.09-8.19-19.99-8.19s-14.44,2.73-19.81,8.19c-5.37,5.46-8.06,12.45-8.06,20.99s2.7,15.39,8.1,20.9c5.4,5.52,11.99,8.27,19.77,8.27Z"/>
  <path class="cls-1" d="M696.52,70.45h25.08v133.77h-25.08V70.45Z"/>
</svg>